<svg width="25" height="24" viewBox="0 0 25 24" fill="none" xmlns="http://www.w3.org/2000/svg">
<g id="Icons" clip-path="url(#clip0_332_168)">
<path id="Vector" d="M3.6018 22C3.29396 21.9995 3.00048 21.8697 2.79299 21.6421C2.58168 21.4166 2.47668 21.1114 2.50436 20.8035L2.77324 17.8462L15.194 5.42636L19.0757 9.30797L6.65816 21.7267L3.70167 21.9956C3.66765 21.9989 3.63363 22 3.6018 22ZM19.8505 8.53187L15.9699 4.65026L18.2976 2.32196C18.5035 2.11582 18.7828 2 19.074 2C19.3653 2 19.6446 2.11582 19.8505 2.32196L22.1781 4.65026C22.3842 4.85616 22.5 5.13556 22.5 5.42691C22.5 5.71826 22.3842 5.99766 22.1781 6.20356L19.8516 8.53077L19.8505 8.53187Z" fill="black"/>
</g>
<defs>
<clipPath id="clip0_332_168">
<rect width="24" height="24" fill="white" transform="translate(0.5)"/>
</clipPath>
</defs>
</svg>
